<mxfile host="app.diagrams.net" modified="2024-05-02T11:57:47.624Z" agent="Mozilla/5.0 (Windows NT 10.0; Win64; x64) AppleWebKit/537.36 (KHTML, like Gecko) Chrome/124.0.0.0 Safari/537.36" etag="gcQTZndCuaz7hC2YnMU0" version="24.3.1" type="device">
  <diagram name="Page-1" id="BilpMqG77aModOFL75s0">
    <mxGraphModel dx="1434" dy="738" grid="1" gridSize="10" guides="1" tooltips="1" connect="1" arrows="1" fold="1" page="1" pageScale="1" pageWidth="850" pageHeight="1100" math="0" shadow="0">
      <root>
        <mxCell id="0" />
        <mxCell id="1" parent="0" />
        <mxCell id="E4PE6TiUJp6mZylaSnVR-1" value="Student_Key(PK, FK)&lt;div&gt;Date_Key(PK, FK)&lt;/div&gt;&lt;div&gt;Food_Loc_Key(PK, FK)&lt;/div&gt;&lt;div&gt;Amt_Purchased&lt;/div&gt;" style="rounded=0;whiteSpace=wrap;html=1;align=left;" vertex="1" parent="1">
          <mxGeometry x="300" y="70" width="160" height="170" as="geometry" />
        </mxCell>
        <mxCell id="E4PE6TiUJp6mZylaSnVR-3" style="edgeStyle=orthogonalEdgeStyle;rounded=0;orthogonalLoop=1;jettySize=auto;html=1;exitX=0;exitY=0.25;exitDx=0;exitDy=0;entryX=0;entryY=0.218;entryDx=0;entryDy=0;entryPerimeter=0;" edge="1" parent="1" source="E4PE6TiUJp6mZylaSnVR-1" target="E4PE6TiUJp6mZylaSnVR-1">
          <mxGeometry relative="1" as="geometry" />
        </mxCell>
        <mxCell id="E4PE6TiUJp6mZylaSnVR-4" value="" style="rounded=0;whiteSpace=wrap;html=1;" vertex="1" parent="1">
          <mxGeometry x="300" y="70" width="160" height="50" as="geometry" />
        </mxCell>
        <mxCell id="E4PE6TiUJp6mZylaSnVR-5" value="Meal_purchase_fact" style="text;html=1;align=center;verticalAlign=middle;whiteSpace=wrap;rounded=0;" vertex="1" parent="1">
          <mxGeometry x="330" y="80" width="60" height="30" as="geometry" />
        </mxCell>
        <mxCell id="E4PE6TiUJp6mZylaSnVR-6" value="Student_Key(PK)&lt;div&gt;Student_ID&lt;/div&gt;&lt;div&gt;Student_Lname&lt;/div&gt;&lt;div&gt;Student_Fname&lt;/div&gt;" style="whiteSpace=wrap;html=1;aspect=fixed;align=left;" vertex="1" parent="1">
          <mxGeometry x="580" y="30" width="150" height="150" as="geometry" />
        </mxCell>
        <mxCell id="E4PE6TiUJp6mZylaSnVR-7" value="Student_Dim" style="rounded=0;whiteSpace=wrap;html=1;" vertex="1" parent="1">
          <mxGeometry x="580" y="30" width="150" height="40" as="geometry" />
        </mxCell>
        <mxCell id="E4PE6TiUJp6mZylaSnVR-8" value="Date_Key(PK)" style="whiteSpace=wrap;html=1;aspect=fixed;align=left;" vertex="1" parent="1">
          <mxGeometry x="580" y="250" width="150" height="150" as="geometry" />
        </mxCell>
        <mxCell id="E4PE6TiUJp6mZylaSnVR-9" value="Date Dim" style="rounded=0;whiteSpace=wrap;html=1;" vertex="1" parent="1">
          <mxGeometry x="580" y="250" width="150" height="40" as="geometry" />
        </mxCell>
        <mxCell id="E4PE6TiUJp6mZylaSnVR-10" value="Food_Loc_Key(PK)&lt;div&gt;Food_Loc_ID&lt;/div&gt;&lt;div&gt;Food_loc_Name&lt;/div&gt;&lt;div&gt;Food_loc_Bldg&lt;/div&gt;" style="whiteSpace=wrap;html=1;aspect=fixed;align=left;" vertex="1" parent="1">
          <mxGeometry x="80" y="260" width="150" height="150" as="geometry" />
        </mxCell>
        <mxCell id="E4PE6TiUJp6mZylaSnVR-11" value="Food_Loc_Dim" style="rounded=0;whiteSpace=wrap;html=1;" vertex="1" parent="1">
          <mxGeometry x="80" y="260" width="150" height="40" as="geometry" />
        </mxCell>
        <mxCell id="E4PE6TiUJp6mZylaSnVR-12" value="" style="endArrow=none;html=1;rounded=0;exitX=1;exitY=0.5;exitDx=0;exitDy=0;entryX=0;entryY=0.5;entryDx=0;entryDy=0;" edge="1" parent="1" source="E4PE6TiUJp6mZylaSnVR-10" target="E4PE6TiUJp6mZylaSnVR-1">
          <mxGeometry width="50" height="50" relative="1" as="geometry">
            <mxPoint x="400" y="410" as="sourcePoint" />
            <mxPoint x="450" y="360" as="targetPoint" />
          </mxGeometry>
        </mxCell>
        <mxCell id="E4PE6TiUJp6mZylaSnVR-13" value="" style="endArrow=none;html=1;rounded=0;entryX=0;entryY=0.5;entryDx=0;entryDy=0;exitX=1;exitY=0.5;exitDx=0;exitDy=0;" edge="1" parent="1" source="E4PE6TiUJp6mZylaSnVR-1" target="E4PE6TiUJp6mZylaSnVR-6">
          <mxGeometry width="50" height="50" relative="1" as="geometry">
            <mxPoint x="400" y="410" as="sourcePoint" />
            <mxPoint x="450" y="360" as="targetPoint" />
          </mxGeometry>
        </mxCell>
        <mxCell id="E4PE6TiUJp6mZylaSnVR-14" value="" style="endArrow=none;html=1;rounded=0;entryX=0;entryY=0.5;entryDx=0;entryDy=0;exitX=1;exitY=0.5;exitDx=0;exitDy=0;" edge="1" parent="1" source="E4PE6TiUJp6mZylaSnVR-1" target="E4PE6TiUJp6mZylaSnVR-8">
          <mxGeometry width="50" height="50" relative="1" as="geometry">
            <mxPoint x="470" y="165" as="sourcePoint" />
            <mxPoint x="590" y="115" as="targetPoint" />
          </mxGeometry>
        </mxCell>
      </root>
    </mxGraphModel>
  </diagram>
</mxfile>
